# xmcd
#
# Track frame offsets: 
#        150
#        16084
#        50070
#        84932
#        104615
#        130062
#        147907
#        161457
#        178022
#        191477
#        202707
#
# Disc length: 3046 seconds
#
# Revision: 1
# Processed by: cddbd v1.5.2PL0 Copyright (c) Steve Scherf et al.
# Submitted via: ExactAudioCopy v1.0b2
#
DISCID=890be40b
DTITLE=Sektor Gaza - Kahsey Bezsmertnyj
DYEAR=1994
DGENRE=Punk Rock
TTITLE0=Introdukciya
TTITLE1=Ariya Ivana
TTITLE2=Ariya Ivana i Lyagushki
TTITLE3=Vtoraya Ariya Ivana
TTITLE4=Ariya Baby Jagi
TTITLE5=Ariya Grafa Drakuly
TTITLE6=Ariya Vasilisy Prekrasnoj
TTITLE7=Tretya Ariya Ivana
TTITLE8=Ariya Kasheya Bezsmertnogo
TTITLE9=Chetvertaya Ariya Ivana
TTITLE10=Edu Babu Vyruchat' (Styob House rmx)
EXTD=
EXTT0=
EXTT1=
EXTT2=
EXTT3=
EXTT4=
EXTT5=
EXTT6=
EXTT7=
EXTT8=
EXTT9=
EXTT10=
PLAYORDER=
